HIERARCHY
ROOT Hips
{
  OFFSET 0 0 0
  CHANNELS 6 Xposition Yposition Zposition Zrotation Yrotation Xrotation
  JOINT LeftThigh
  {
    OFFSET 8.409438 0 -5.917753
    CHANNELS 3 Zrotation Yrotation Xrotation
    JOINT LeftLeg
    {
      OFFSET 0 0 -42.358652
      CHANNELS 3 Zrotation Yrotation Xrotation
      JOINT LeftFoot
      {
        OFFSET 0 0 -39.357303
        CHANNELS 3 Zrotation Yrotation Xrotation
      }
    }
  }
  JOINT RightThigh
  {
    OFFSET -8.409438 0 -5.917753
    CHANNELS 3 Zrotation Yrotation Xrotation
    JOINT RightLeg
    {
      OFFSET 0 0 -42.358652
      CHANNELS 3 Zrotation Yrotation Xrotation
      JOINT RightFoot
      {
        OFFSET 0 0 -39.357303
        CHANNELS 3 Zrotation Yrotation Xrotation
      }
    }
  }
  JOINT SpineLow
  {
    OFFSET 0 0 4.719101
    CHANNELS 3 Zrotation Yrotation Xrotation
    JOINT SpineMid
    {
      OFFSET 0 0 12.899191
      CHANNELS 3 Zrotation Yrotation Xrotation
      JOINT Chest
      {
        OFFSET 0 0 12.899191
        CHANNELS 3 Zrotation Yrotation Xrotation
        JOINT LeftShoulder
        {
          OFFSET 7.550562 1.41573 9.438202
          CHANNELS 3 Zrotation Yrotation Xrotation
          JOINT LeftArm
          {
            OFFSET 9.155056 0 4.247191
            CHANNELS 3 Zrotation Yrotation Xrotation
            JOINT LeftForearm
            {
              OFFSET 0 0 25.771955
              CHANNELS 3 Zrotation Yrotation Xrotation
              JOINT LeftHand
              {
                OFFSET 0 0 25.197169
                CHANNELS 3 Zrotation Yrotation Xrotation
              }
            }
          }
        }
        JOINT RightShoulder
        {
          OFFSET -7.550562 1.41573 9.438202
          CHANNELS 3 Zrotation Yrotation Xrotation
          JOINT RightArm
          {
            OFFSET -9.155056 0 4.247191
            CHANNELS 3 Zrotation Yrotation Xrotation
            JOINT RightForearm
            {
              OFFSET 0 0 -25.771955
              CHANNELS 3 Zrotation Yrotation Xrotation
              JOINT RightHand
              {
                OFFSET 0 0 -25.197169
                CHANNELS 3 Zrotation Yrotation Xrotation
              }
            }
          }
        }
        JOINT Neck
        {
          OFFSET 0 0 15.101124
          CHANNELS 3 Zrotation Yrotation Xrotation
          JOINT Head
          {
            OFFSET 0 0 11.325843
            CHANNELS 3 Zrotation Yrotation Xrotation
            End Site
            {
              OFFSET 0 0 14.157303
            }
          }
        }
      }
    }
  }
}
MOTION
Frames: 17
Frame Time: 0.0
0.0  89.887642  0.0  11.916092  -38.229525  -104.889546  16.437153  -3.559422  13.719017  1.276105  0.658306  17.403634  1.627069  -0.711449  3.232728  3.822069  16.746391  -17.904329  6.724706  2.696484  30.561512  -1.323856  -0.268566  -1.145984  -2.223112  0.754082  0.855904  -6.051023  2.137561  2.268686  -6.051023  2.137561  2.268686  -17.870912  -0.142221  1.914413  -24.844075  53.476871  48.977047  -24.37355  -22.660688  98.884211  94.148807  -6.856837  -15.520714  -21.56364  -2.978331  19.87011  54.703868  11.647785  44.390738  10.366593  -14.626405  -114.138501  86.747399  10.151599  -28.31714  16.666453  3.504803  4.069586  12.473261  2.742141  2.958129  
0.0  89.887642  0.0  11.776111  -38.018746  -104.779092  16.403655  -3.814413  13.580741  1.129291  0.828457  17.560526  1.660475  -0.669684  3.219815  3.66175  16.663717  -17.699014  6.781874  2.707778  30.369737  -1.318098  -0.282822  -1.116613  -2.314632  0.730822  0.848904  -6.302163  2.076458  2.248713  -6.302163  2.076458  2.248712  -17.423219  0.076427  1.998029  -24.924768  53.478531  49.000105  -24.308805  -22.72503  98.980091  94.304686  -7.008285  -15.701733  -21.311476  -2.860476  19.760027  54.748629  11.752935  44.398193  10.550585  -14.727525  -114.138987  86.63838  10.151611  -28.329235  16.935369  3.635092  4.092093  12.673599  2.842446  2.969857  
0.0  89.887642  0.0  11.674319  -37.827646  -104.851116  16.475635  -4.009188  13.637682  0.961654  0.908205  17.714961  1.632998  -0.693866  3.241533  3.479888  16.633373  -17.433096  6.858126  2.706792  30.239525  -1.297809  -0.303351  -1.110343  -2.332166  0.732657  0.884805  -6.348884  2.085486  2.346032  -6.348884  2.085486  2.346032  -17.51683  0.104888  2.010418  -24.87548  53.421157  49.082761  -24.295516  -22.823611  98.909061  94.325868  -7.004679  -15.667623  -21.366471  -2.84533  19.771312  54.84671  11.790676  44.390865  10.566108  -14.796903  -114.162058  86.558578  10.146532  -28.391507  16.909643  3.685006  4.039496  12.654157  2.878275  2.929116  
0.0  89.887642  0.0  11.555992  -37.560995  -104.789822  16.394743  -4.21098  13.588776  0.911481  1.078415  17.908462  1.554252  -0.67436  3.185947  3.242914  16.54699  -17.225029  6.782316  2.820133  30.038752  -1.133842  -0.237445  -1.068994  -2.390986  0.721836  0.891023  -6.509832  2.058594  2.362153  -6.509832  2.058594  2.362153  -17.274112  0.281445  2.084701  -24.901033  53.403859  49.147933  -24.307619  -23.01894  99.136034  94.279669  -6.82124  -15.557592  -21.237469  -2.751031  19.709005  54.803288  11.892519  44.301512  10.703923  -15.008411  -114.260648  86.515944  10.015416  -28.551196  17.069548  3.773652  4.036996  12.773263  2.94586  2.923783  
0.0  89.887642  0.0  11.473614  -37.309227  -104.902566  16.399822  -4.399144  13.674297  0.690319  1.197717  18.064961  1.552096  -0.689508  3.206726  3.085857  16.539285  -16.938434  6.756634  2.866889  29.944952  -1.117278  -0.233195  -1.0662  -2.403238  0.731327  0.923654  -6.541969  2.088148  2.449957  -6.54197  2.088148  2.449958  -17.427423  0.324818  2.146441  -24.81182  53.343168  49.229447  -24.288864  -23.065903  99.05332  94.249715  -6.853677  -15.476158  -21.291329  -2.728814  19.791346  54.907518  11.939483  44.284611  10.718147  -15.073358  -114.251869  86.418593  9.999269  -28.611257  17.009896  3.77422  4.004486  12.728722  2.944965  2.899722  
0.0  89.887642  0.0  11.38812  -37.0957  -104.91598  16.427769  -4.621286  13.671777  0.766386  1.422483  18.38677  1.388364  -0.745578  3.055141  3.033077  16.514804  -16.693323  6.673992  2.972615  29.798749  -1.076193  -0.226698  -1.040897  -2.442062  0.724254  0.932406  -6.648059  2.071124  2.473294  -6.648059  2.071124  2.473294  -17.208443  0.523544  2.265026  -24.77422  53.305326  49.307659  -24.331602  -23.181545  99.33614  94.331674  -6.96124  -15.548958  -21.075828  -2.608547  19.791583  54.759932  11.998953  44.083955  10.775145  -15.2868  -114.352097  86.398659  9.735395  -28.795033  17.148272  3.827042  4.01684  12.83192  2.985919  2.906657  
0.0  89.887642  0.0  11.320074  -36.867171  -105.021932  16.46538  -4.816578  13.726446  0.578974  1.556797  18.558826  1.383047  -0.772454  3.073607  2.924103  16.539515  -16.442845  6.647704  2.984471  29.726253  -1.048385  -0.231068  -1.046189  -2.441985  0.73663  0.956815  -6.646637  2.107351  2.538735  -6.646637  2.107351  2.538735  -17.369142  0.565454  2.367112  -24.605717  53.259174  49.39474  -24.316776  -23.177811  99.251939  94.287938  -6.991284  -15.493034  -21.088725  -2.592184  19.91294  54.842366  12.024868  44.022131  10.768872  -15.329002  -114.305283  86.256077  9.69456  -28.838136  17.068596  3.797721  3.99766  12.772561  2.96282  2.893581  
0.0  89.887642  0.0  11.191394  -36.604091  -104.953879  16.480724  -5.06015  13.692789  0.470413  1.751003  18.727484  1.273376  -0.764322  2.980453  2.917871  16.586194  -16.265221  6.606591  2.975832  29.631135  -1.094107  -0.25479  -1.020051  -2.474882  0.731797  0.957639  -6.736709  2.095476  2.540387  -6.736709  2.095476  2.540387  -17.10164  0.730141  2.523481  -24.338979  53.383261  49.615587  -24.33426  -23.393378  99.575012  94.37254  -7.046703  -15.587869  -20.88963  -2.534707  19.9251  54.629885  12.05205  43.744656  10.887647  -15.447907  -114.277901  86.180708  9.424963  -28.97017  17.165715  3.807461  4.008815  12.845224  2.971114  2.901095  
0.0  89.887642  0.0  11.094839  -36.348196  -104.982785  16.470356  -5.244009  13.673124  0.282249  1.886147  18.883191  1.245044  -0.77807  3.007513  2.78248  16.632531  -16.10291  6.52984  2.94491  29.582011  -1.094225  -0.254391  -1.021292  -2.480785  0.741083  0.977402  -6.751876  2.123058  2.593235  -6.751876  2.123058  2.593235  -17.143703  0.757661  2.612522  -24.193157  53.334881  49.695259  -24.318497  -23.3573  99.45981  94.332233  -7.073271  -15.438045  -20.838171  -2.522709  20.03582  54.744828  12.07978  43.624918  10.888068  -15.52204  -114.242512  85.99458  9.34013  -29.00522  17.111909  3.777312  3.975004  12.805353  2.94716  2.876909  
0.0  89.887642  0.0  10.96361  -36.098665  -104.908888  16.54571  -5.484537  13.631829  0.195476  2.087944  19.08458  1.102144  -0.798964  2.897497  2.669181  16.676469  -16.005258  6.485894  2.93116  29.518478  -1.114018  -0.264727  -1.007543  -2.508636  0.736  0.974065  -6.828303  2.109906  2.583714  -6.828303  2.109906  2.583715  -16.77444  0.933074  2.799502  -23.967862  53.449235  49.900407  -24.322601  -23.483723  99.707434  94.427183  -7.212913  -15.440853  -20.656668  -2.467554  20.070465  54.627216  12.129619  43.372708  10.965279  -15.697299  -114.326617  85.881053  8.98284  -29.216812  17.228376  3.780775  4.006102  12.892462  2.951436  2.899459  
0.0  89.887642  0.0  10.868124  -35.846609  -104.911874  16.616842  -5.679679  13.618404  -0.073133  2.229764  19.178148  1.099315  -0.818654  2.915992  2.4289  16.733643  -15.914653  6.474368  2.888174  29.481048  -1.111505  -0.275099  -1.008278  -2.513863  0.740723  0.985709  -6.842045  2.1242  2.614859  -6.842045  2.1242  2.614859  -16.74139  0.979968  2.884376  -23.780478  53.467152  50.000483  -24.314061  -23.442518  99.590263  94.367494  -7.256823  -15.260288  -20.525301  -2.433962  20.213485  54.678301  12.18536  43.174435  10.937823  -15.738026  -114.26611  85.691291  8.891581  -29.348188  17.197161  3.764307  3.997897  12.869257  2.938626  2.893961  
0.0  89.887642  0.0  10.761414  -35.607207  -104.828775  16.787593  -5.906935  13.587401  -0.180779  2.416209  19.330356  0.974183  -0.841166  2.798662  2.229826  16.740192  -15.815816  6.475232  2.899071  29.358787  -1.113916  -0.263916  -0.988923  -2.545399  0.730174  0.979308  -6.928838  2.095957  2.597419  -6.928838  2.095957  2.597419  -16.280348  1.191462  3.035538  -23.778376  53.491738  50.074122  -24.273481  -23.40078  99.680056  94.456912  -7.347737  -15.258612  -20.192447  -2.332257  20.271638  54.506563  12.243664  42.80445  10.883769  -15.986762  -114.447565  85.715259  8.396688  -29.637326  17.361694  3.804567  4.046454  12.991966  2.971366  2.928263  
0.0  89.887642  0.0  10.671779  -35.321042  -104.784898  16.921918  -6.113411  13.542814  -0.456531  2.559332  19.388355  0.955386  -0.875303  2.802954  1.896654  16.771384  -15.753966  6.541413  2.884667  29.274848  -1.124132  -0.278014  -0.993096  -2.539317  0.731125  0.990376  -6.911814  2.099472  2.627747  -6.911814  2.099472  2.627747  -16.250452  1.25172  3.103286  -23.663621  53.576102  50.11768  -24.254482  -23.341259  99.566855  94.425659  -7.366887  -15.119585  -20.066486  -2.316753  20.396724  54.543851  12.319303  42.532982  10.801758  -16.002363  -114.349508  85.615473  8.295351  -29.684411  17.278966  3.804235  4.032003  12.930029  2.970131  2.917919  
0.0  89.887642  0.0  10.540252  -35.022235  -104.576766  17.146521  -6.382491  13.39026  -0.696822  2.782457  19.46616  0.841848  -0.914087  2.701185  1.417567  16.708459  -15.834959  6.697377  2.906274  29.151269  -1.09958  -0.257386  -0.97143  -2.542314  0.713626  0.985651  -6.920781  2.05133  2.616548  -6.920781  2.05133  2.616548  -15.91762  1.431898  3.188671  -23.777083  53.643605  50.142854  -24.229414  -23.250146  99.568297  94.502103  -7.379843  -15.071155  -19.858324  -2.270722  20.400064  54.348932  12.374903  42.047794  10.678146  -16.016507  -114.238008  85.563799  7.999596  -29.799818  17.288667  3.853943  4.032606  12.936843  3.007532  2.916871  
0.0  89.887642  0.0  10.430102  -34.691578  -104.426665  17.306244  -6.607569  13.233212  -1.010426  2.952923  19.522292  0.819671  -0.953138  2.70694  1.062962  16.717548  -15.831497  6.728197  2.921831  29.036589  -1.130351  -0.262488  -0.977423  -2.532373  0.706033  0.979722  -6.894062  2.029604  2.601456  -6.894061  2.029604  2.601456  -15.841433  1.522494  3.281565  -23.717849  53.855098  50.181609  -24.215677  -23.131756  99.420594  94.466854  -7.392354  -14.86258  -19.713235  -2.238741  20.594293  54.410926  12.504412  41.661217  10.440259  -15.940902  -114.082665  85.448116  7.903322  -29.735414  17.178245  3.857553  4.034544  12.854009  3.00953  2.918883  
0.0  89.887642  0.0  10.244699  -34.290499  -104.143596  17.398183  -6.850382  13.00376  -1.313972  3.136774  19.547934  0.774896  -0.951567  2.664958  0.45564  16.605176  -15.932961  6.809142  3.01632  28.869991  -1.065885  -0.224087  -0.963148  -2.534307  0.684859  0.96072  -6.900679  1.969907  2.551681  -6.900679  1.969907  2.551681  -15.476544  1.705827  3.435998  -23.909053  54.073116  50.22927  -24.181792  -23.007103  99.245599  94.608321  -7.531836  -14.836556  -19.453075  -2.195109  20.715583  54.143946  12.613596  41.014662  10.302299  -15.91792  -113.934507  85.449412  7.561321  -29.705811  17.129536  3.876623  4.054886  12.817193  3.02408  2.933893  
0.0  89.887642  0.0  10.116342  -33.867853  -104.013604  17.404066  -7.038182  12.855679  -1.571766  3.271123  19.616704  0.741626  -0.980417  2.679736  0.125381  16.600827  -15.827474  6.746283  3.097907  28.715387  -1.077351  -0.225316  -0.971124  -2.517602  0.684834  0.956682  -6.855137  1.968792  2.541171  -6.855137  1.968792  2.541172  -15.410878  1.746097  3.547171  -23.834476  54.507706  50.390036  -24.178594  -22.966058  99.035581  94.646927  -7.491695  -14.59305  -19.343931  -2.248588  20.943247  54.2269  12.786843  40.575683  10.108059  -15.871213  -113.802253  85.341872  7.357479  -29.583073  16.956659  3.828788  4.052831  12.688028  2.986908  2.93476  
